# xmcd CD database file generated by Grip 2.92
# 
# Track frame offsets:
#       150
#       19786
#       39911
#       55228
#       70774
#       86854
#       103244
#       117200
#       136324
#       147307
#       166124
#       184913
#       199717
# 
# Disc length: 2829 seconds
# 
# Revision: 3
# Processed by: cddbd v1.4b41PL1 Copyright (c) Steve Scherf et al.
# Submitted via: Grip 2.92
# 
DISCID=b40b0b0d
DTITLE=Various Artist - Midnight Blues
DYEAR=1900
DGENRE=
TTITLE0=You've Always Got the Blues - Kate Ceberano and Wendy Matthews
TTITLE1=Moonlight in Vermont - Marc Hunter
TTITLE2=Sophisticated Lady - Grace Knight
TTITLE3=You Go to My Head - Vince Jones
TTITLE4=Sing To Me - Kate Ceberano
TTITLE5=Night and Day - Marc Hunter
TTITLE6=The Man I Love - Grace Knight
TTITLE7=I Get Along Without You Very Well - Vince Jones
TTITLE8=The Way You Look Tonight - Wendy Matthews with Kate Ceberano
TTITLE9=Walk on By - Marc Hunter
TTITLE10=All True - Tania Bowra
TTITLE11=A Bottle of Wine and Patsy Cline - Anne Kirkpatrick
TTITLE12=Cry Me A River - Kate Ceberano and Wendy Matthews
EXTD=
EXTT0=
EXTT1=
EXTT2=
EXTT3=
EXTT4=
EXTT5=
EXTT6=
EXTT7=
EXTT8=
EXTT9=
EXTT10=
EXTT11=
EXTT12=
PLAYORDER=
